# xmcd
#
# Track frame offsets:
#	150
#	13085
#	23660
#	34073
#	41971
#	54090
#	74777
#	86484
#	96197
#	109203
#	122680
#	135560
#	150375
#	162673
#	175138
#
# Disc length: 2495 seconds
#
# Revision: 1
# Processed by: cddbd v1.5.2PL0 Copyright (c) Steve Scherf et al.
# Submitted via: audiograbber 1.82.02
#
DISCID=c509bd0f
DTITLE=Various Artist - Country Greats CD5 Stand By Your Man
DYEAR=2009
DGENRE=Country
TTITLE0=Tammy Wynette - Stand By Your Man
TTITLE1=Merlle Travis - T for Texas
TTITLE2=Marty Robbins - It's A Pity What Money Can Do
TTITLE3=johnny Cash - I Can't Help It (If I'm Still in Love With You
TTITLE4=Billie Jo Spears - You Never Can Tell
TTITLE5=Red Sovine - Daddy
TTITLE6=Jim Reeves - Mexican Joe
TTITLE7=Freddy Fender - But I Do
TTITLE8=Marty Robbins - A Castle in the Sky
TTITLE9=Merle Travis - Divorce Me C.O.D
TTITLE10=Slim Whitman - Release Me 
TTITLE11=Narvel Felts - Everything is Beautiful
TTITLE12=Hank Williams - Cold Cold Heart
TTITLE13=Willie Nelson - Shelter Of Your Arms
TTITLE14=Johnny Cash - Home Of The Blues
EXTD=YEAR: 2009
EXTT0=
EXTT1=
EXTT2=
EXTT3=
EXTT4=
EXTT5=
EXTT6=
EXTT7=
EXTT8=
EXTT9=
EXTT10=
EXTT11=
EXTT12=
EXTT13=
EXTT14=
PLAYORDER=
